<?xml version="1.0" standalone="no"?>
<!DOCTYPE svg PUBLIC "-//W3C//DTD SVG 20010904//EN"
 "http://www.w3.org/TR/2001/REC-SVG-20010904/DTD/svg10.dtd">
<svg version="1.0" xmlns="http://www.w3.org/2000/svg"
 width="500.000000pt" height="500.000000pt" viewBox="0 0 500.000000 500.000000"
 preserveAspectRatio="xMidYMid meet">

<g transform="translate(0.000000,500.000000) scale(0.100000,-0.100000)"
fill="#000000" stroke="none">
<path d="M2400 3494 c-14 -2 -52 -9 -85 -15 -188 -32 -385 -136 -521 -273
-386 -392 -389 -1016 -6 -1403 307 -312 773 -389 1162 -193 233 117 420 335
498 580 38 118 47 182 45 320 -1 109 -6 154 -27 235 -95 369 -388 651 -761
731 -70 15 -258 26 -305 18z m335 -93 c138 -37 289 -119 394 -215 123 -113
230 -291 272 -452 26 -103 36 -280 20 -379 -47 -288 -224 -535 -484 -675 -158
-85 -299 -116 -490 -107 -183 9 -309 50 -462 152 -207 137 -356 361 -400 600
-21 111 -16 319 9 410 97 348 374 606 732 680 99 21 305 13 409 -14z"/>
<path d="M2274 2990 c-54 -22 -54 -19 -54 -492 l0 -437 23 -26 c13 -15 37 -28
58 -31 35 -6 48 3 317 205 154 116 290 223 301 237 27 34 27 74 1 107 -36 45
-578 447 -602 446 -13 0 -33 -4 -44 -9z m326 -267 c151 -115 275 -215 275
-223 0 -18 -542 -430 -566 -430 -9 0 -20 7 -23 16 -8 20 -8 808 0 828 3 9 14
16 23 16 9 0 140 -93 291 -207z"/>
</g>
</svg>
